{"title":"On The Couch With Sterlo - 21-9-2016","uid":15889056,"size":1241369663,"categoryP":"video","categoryS":"tv_shows","magnet":"?xt=urn:btih:488e78c08a3e80f6db304b28a1ad36980124c7d5&amp;dn=On+The+Couch+With+Sterlo+-+21-9-2016&amp;tr=udp%3A%2F%2Ftracker.leechers-paradise.org%3A6969&amp;tr=udp%3A%2F%2Fzer0day.ch%3A1337&amp;tr=udp%3A%2F%2Fopen.demonii.com%3A1337&amp;tr=udp%3A%2F%2Ftracker.coppersurfer.tk%3A6969&amp;tr=udp%3A%2F%2Fexodus.desync.com%3A6969","seeders":3,"leechers":4,"uploader":"Bullrout","files":1,"time":1474697703,"description":"On The Couch With Sterlo - 21-9-2016\r\n\r\nPeter Sterling is joined by Braith Anasta, Steve Roach &amp; Corey Parker. They'll break down the two Prelim Finals, cross to Cameron Smith in Melbourne &amp; Sterlo sits down 1-on-1 with Noel 'Crusher' Cleal. \r\n\r\nComplete name                            : On The Couch With Sterlo - 21-9-2016.mkv\r\nFormat                                   : Matroska\r\nFormat version                           : Version 4 / Version 2\r\nFile size                                : 1.16 GiB\r\nDuration                                 : 49 min 42 s\r\nOverall bit rate mode                    : Variable\r\nOverall bit rate                         : 3 330 kb/s\r\nEncoded date                             : UTC 2016-09-23 13:37:36\r\nWriting application                      : mkvmerge v9.4.2 ('So High') 64bit\r\nWriting library                          : libebml v1.3.4 + libmatroska v1.4.5\r\n\r\nVideo\r\nID                                       : 2\r\nFormat                                   : AVC\r\nFormat/Info                              : Advanced Video Codec\r\nFormat profile                           :   \r\nFormat settings, CABAC                   : Yes\r\nFormat settings, ReFrames                : 3 frames\r\nCodec ID                                 : V_MPEG4/ISO/AVC\r\nDuration                                 : 49 min 42 s\r\nBit rate mode                            : Variable\r\nBit rate                                 : 2 944 kb/s\r\nMaximum bit rate                         : 3 000 kb/s\r\nWidth                                    : 1 280 pixels\r\nHeight                                   : 720 pixels\r\nDisplay aspect ratio                     : 16:9\r\nFrame rate mode                          : Constant\r\nFrame rate                               : 25.000 FPS\r\nStandard                                 : PAL\r\nColor space                              : YUV\r\nChroma subsampling                       : 4:2:0\r\nBit depth                                : 8 bits\r\nScan type                                : Progressive\r\nBits/(Pixel*Frame)                       : 0.128\r\nStream size                              : 1.02 GiB (88%)\r\nWriting library                          : x264 core 112\r\nDefault                                  : Yes\r\nForced                                   : No\r\nColor range                              : Limited\r\nColor primaries                          : BT.709\r\nTransfer characteristics                 : BT.709\r\nMatrix coefficients                      : BT.709\r\n\r\nAudio\r\nID                                       : 1\r\nFormat                                   : AC-3\r\nFormat/Info                              : Audio Coding 3\r\nMode extension                           : CM (complete main)\r\nFormat settings, Endianness              : Big\r\nCodec ID                                 : A_AC3\r\nDuration                                 : 49 min 42 s\r\nBit rate mode                            : Constant\r\nBit rate                                 : 384 kb/s\r\nChannel(s)                               : 6 channels\r\nChannel positions                        : Front: L C R, Side: L R, LFE\r\nSampling rate                            : 48.0 kHz\r\nFrame rate                               : 31.250 FPS (1536 spf)\r\nCompression mode                         : Lossy\r\nStream size                              : 137 MiB (12%)\r\nDefault                                  : Yes\r\nForced                                   : No","torrent":{"xt":"urn:btih:488e78c08a3e80f6db304b28a1ad36980124c7d5","amp;dn":"On+The+Couch+With+Sterlo+-+21-9-2016","amp;tr":["udp%3A%2F%2Ftracker.leechers-paradise.org%3A6969","udp%3A%2F%2Fzer0day.ch%3A1337","udp%3A%2F%2Fopen.demonii.com%3A1337","udp%3A%2F%2Ftracker.coppersurfer.tk%3A6969","udp%3A%2F%2Fexodus.desync.com%3A6969"],"infoHash":"488e78c08a3e80f6db304b28a1ad36980124c7d5","infoHashBuffer":{"type":"Buffer","data":[72,142,120,192,138,62,128,246,219,48,75,40,161,173,54,152,1,36,199,213]},"announce":[],"urlList":[]}}